<mxfile host="app.diagrams.net" modified="2024-03-09T21:09:45.478Z" agent="Mozilla/5.0 (X11; Linux x86_64; rv:123.0) Gecko/20100101 Firefox/123.0" etag="TRSbdssV6Mj0zUhpMO_I" version="24.0.4" type="device">
  <diagram name="Page-1" id="BwBwTU97Q0gR4iH6OQP9">
    <mxGraphModel dx="2049" dy="1130" grid="1" gridSize="10" guides="1" tooltips="1" connect="1" arrows="1" fold="1" page="1" pageScale="1" pageWidth="827" pageHeight="1169" math="0" shadow="0">
      <root>
        <mxCell id="0" />
        <mxCell id="1" parent="0" />
        <mxCell id="NCgN_VvcznP3UVkg2TD7-3" value="" style="shape=image;imageAspect=0;aspect=fixed;verticalLabelPosition=bottom;verticalAlign=top;image=https://external-content.duckduckgo.com/iu/?u=https%3A%2F%2Fdownload.logo.wine%2Flogo%2FNode.js%2FNode.js-Logo.wine.png&amp;f=1&amp;nofb=1&amp;ipt=398317ae9c67e5e05d07dd759b1169f19e96a3e46f4b78f42a350e756d6694a0&amp;ipo=images;" vertex="1" parent="1">
          <mxGeometry x="198" y="410" width="430.09" height="287" as="geometry" />
        </mxCell>
        <mxCell id="NCgN_VvcznP3UVkg2TD7-6" value="" style="shape=image;imageAspect=0;aspect=fixed;verticalLabelPosition=bottom;verticalAlign=top;image=https://external-content.duckduckgo.com/iu/?u=https%3A%2F%2Fcdn.icon-icons.com%2Ficons2%2F2699%2FPNG%2F512%2Fpostgresql_logo_icon_170836.png&amp;f=1&amp;nofb=1&amp;ipt=2fbe5a123667ec3fdab7e52b8081f1f3a91322906cabd10ef442a3154d2e03da&amp;ipo=images;" vertex="1" parent="1">
          <mxGeometry x="158" y="870" width="512" height="256" as="geometry" />
        </mxCell>
        <mxCell id="NCgN_VvcznP3UVkg2TD7-7" value="" style="shape=image;imageAspect=0;aspect=fixed;verticalLabelPosition=bottom;verticalAlign=top;image=https://external-content.duckduckgo.com/iu/?u=https%3A%2F%2Fblog.ineat-group.com%2Fwp-content%2Fuploads%2F2019%2F05%2Fflutter.png&amp;f=1&amp;nofb=1&amp;ipt=091cd5b5e9f5ecdb3a31a16f241641f2d388e07670f53733bd53f00bfecb9662&amp;ipo=images;" vertex="1" parent="1">
          <mxGeometry x="154" y="40" width="520" height="190" as="geometry" />
        </mxCell>
        <mxCell id="NCgN_VvcznP3UVkg2TD7-8" value="" style="shape=flexArrow;endArrow=classic;startArrow=classic;html=1;rounded=0;entryX=0.5;entryY=1;entryDx=0;entryDy=0;exitX=0.5;exitY=0;exitDx=0;exitDy=0;" edge="1" parent="1" source="NCgN_VvcznP3UVkg2TD7-3" target="NCgN_VvcznP3UVkg2TD7-7">
          <mxGeometry width="100" height="100" relative="1" as="geometry">
            <mxPoint x="360" y="390" as="sourcePoint" />
            <mxPoint x="460" y="290" as="targetPoint" />
          </mxGeometry>
        </mxCell>
        <mxCell id="NCgN_VvcznP3UVkg2TD7-9" value="" style="shape=flexArrow;endArrow=classic;startArrow=classic;html=1;rounded=0;exitX=0.5;exitY=0;exitDx=0;exitDy=0;entryX=0.5;entryY=1;entryDx=0;entryDy=0;" edge="1" parent="1" source="NCgN_VvcznP3UVkg2TD7-6" target="NCgN_VvcznP3UVkg2TD7-3">
          <mxGeometry width="100" height="100" relative="1" as="geometry">
            <mxPoint x="423" y="451" as="sourcePoint" />
            <mxPoint x="430" y="750" as="targetPoint" />
          </mxGeometry>
        </mxCell>
      </root>
    </mxGraphModel>
  </diagram>
</mxfile>
